<?xml version="1.0" standalone="no"?>
<!DOCTYPE svg PUBLIC "-//W3C//DTD SVG 20010904//EN"
 "http://www.w3.org/TR/2001/REC-SVG-20010904/DTD/svg10.dtd">
<svg version="1.0" xmlns="http://www.w3.org/2000/svg"
 width="110.000000pt" height="82.000000pt" viewBox="0 0 4384.000000 882.000000"
 preserveAspectRatio="xMidYMid meet">

<g transform="translate(0.000000,882.000000) scale(0.100000,-0.100000)"
fill="#fff" stroke="none">
<path d="M0 4545 l0 -4235 1065 0 1065 0 2 2053 3 2053 2684 -2208 c1476
-1214 2690 -2208 2698 -2208 11 0 13 688 13 4225 l0 4225 -1065 0 -1065 0 -2
-2035 -3 -2036 -2600 2122 c-1430 1167 -2644 2157 -2697 2201 l-98 79 0 -4236z"/>
<path d="M8860 4380 l0 -4070 1110 0 1110 0 0 1500 0 1500 1670 0 1670 0 0
940 0 940 -1667 2 -1668 3 -3 628 -2 627 1835 0 1835 0 0 1000 0 1000 -2945 0
-2945 0 0 -4070z"/>
<path d="M15080 7445 l0 -1005 1100 0 1100 0 0 -3065 0 -3065 1110 0 1110 0 0
3065 0 3065 1075 0 1075 0 0 1005 0 1005 -3285 0 -3285 0 0 -1005z"/>
<path d="M22610 4380 l0 -4070 730 0 730 0 0 1425 0 1425 904 0 c546 0 945 4
1007 10 598 60 1090 284 1556 709 460 420 724 923 815 1556 18 122 17 618 -1
745 -99 709 -393 1227 -946 1673 -372 300 -773 481 -1256 569 l-124 23 -1707
3 -1708 2 0 -4070z m3348 2717 c500 -131 836 -490 939 -1002 26 -131 26 -464
-1 -590 -56 -268 -167 -479 -345 -656 -196 -195 -429 -312 -711 -354 -77 -12
-254 -15 -932 -15 l-838 0 0 1325 0 1326 893 -3 892 -4 103 -27z"/>
<path d="M41160 7325 l0 -1125 -380 0 -380 0 0 -640 0 -640 380 0 380 0 0
-2305 0 -2305 700 0 700 0 0 2305 0 2305 640 0 640 0 0 640 0 640 -640 0 -640
0 0 1125 0 1125 -700 0 -700 0 0 -1125z"/>
<path d="M31735 6364 c-16 -2 -79 -9 -140 -15 -490 -49 -981 -225 -1395 -500
-198 -133 -339 -248 -510 -419 -412 -410 -672 -864 -806 -1405 -176 -711 -93
-1528 219 -2150 321 -641 913 -1199 1572 -1480 582 -249 1275 -326 1935 -215
649 110 1207 395 1689 864 276 270 468 533 627 861 130 269 217 557 265 875
21 139 24 189 24 475 -1 281 -4 338 -23 465 -91 585 -295 1047 -654 1482 -91
110 -321 340 -433 433 -478 397 -996 622 -1635 711 -109 15 -658 29 -735 18z
m460 -1274 c461 -44 823 -224 1149 -572 132 -140 213 -257 296 -423 132 -266
190 -520 190 -839 0 -444 -120 -814 -374 -1151 -70 -94 -266 -292 -351 -356
-88 -67 -312 -198 -368 -216 -4 -2 -22 -9 -41 -17 -42 -17 -190 -62 -231 -70
-16 -3 -46 -8 -65 -10 -19 -3 -51 -10 -70 -16 -22 -7 -139 -9 -320 -7 -261 4
-295 7 -406 30 -540 117 -956 431 -1203 908 -99 190 -154 353 -193 569 -21
121 -18 568 6 695 79 431 304 812 646 1095 349 289 834 427 1335 380z"/>
<path d="M39205 6309 c-398 -19 -768 -137 -1068 -342 -185 -126 -389 -353
-488 -542 l-44 -84 -5 427 -5 427 -695 0 -695 0 -3 -2942 -2 -2943 700 0 699
0 4 1682 c3 1511 5 1691 20 1761 76 364 200 604 423 818 49 47 123 108 164
136 169 114 394 203 610 243 221 41 576 37 848 -8 l102 -18 0 677 0 677 -23 6
c-92 23 -337 34 -542 25z"/>
</g>
</svg>
